<mxfile host="app.diagrams.net" modified="2022-10-03T15:31:36.603Z" agent="5.0 (Macintosh; Intel Mac OS X 10_15_7) AppleWebKit/537.36 (KHTML, like Gecko) Chrome/105.0.0.0 Safari/537.36" etag="v8U5yz1yJsiLIUpUqhae" version="20.4.0" type="github">
  <diagram id="1qcP6OTj-9VPpRx-Citk" name="第 1 页">
    <mxGraphModel dx="946" dy="482" grid="1" gridSize="10" guides="1" tooltips="1" connect="1" arrows="1" fold="1" page="1" pageScale="1" pageWidth="827" pageHeight="1169" math="0" shadow="0">
      <root>
        <mxCell id="0" />
        <mxCell id="1" parent="0" />
        <mxCell id="1F0DK0M1qxSwLMNNfe65-2" value="" style="shape=image;verticalLabelPosition=bottom;labelBackgroundColor=default;verticalAlign=top;aspect=fixed;imageAspect=0;image=data:image/jpeg,/9j/4AAQSkZJRgABAQAAAQABAAD/4gIoSUNDX1BST0ZJTEUAAQEAAAIYAAAAAAQwAABtbnRyUkdCIFhZWiAAAAAAAAAAAAAAAABhY3NwAAAAAAAAAAAAAAAAAAAAAAAAAAAAAAAAAAAAAQAA9tYAAQAAAADTLQAAAAAAAAAAAAAAAAAAAAAAAAAAAAAAAAAAAAAAAAAAAAAAAAAAAAAAAAAAAAAAAAAAAAlkZXNjAAAA8AAAAHRyWFlaAAABZAAAABRnWFlaAAABeAAAABRiWFlaAAABjAAAABRyVFJDAAABoAAAAChnVFJDAAABoAAAAChiVFJDAAABoAAAACh3dHB0AAAByAAAABRjcHJ0AAAB3AAAADxtbHVjAAAAAAAAAAEAAAAMZW5VUwAAAFgAAAAcAHMAUgBHAEIAAAAAAAAAAAAAAAAAAAAAAAAAAAAAAAAAAAAAAAAAAAAAAAAAAAAAAAAAAAAAAAAAAAAAAAAAAAAAAAAAAAAAAAAAAAAAAAAAAAAAAAAAAFhZWiAAAAAAAABvogAAOPUAAAOQWFlaIAAAAAAAAGKZAAC3hQAAGNpYWVogAAAAAAAAJKAAAA+EAAC2z3BhcmEAAAAAAAQAAAACZmYAAPKnAAANWQAAE9AAAApbAAAAAAAAAABYWVogAAAAAAAA9tYAAQAAAADTLW1sdWMAAAAAAAAAAQAAAAxlblVTAAAAIAAAABwARwBvAG8AZwBsAGUAIABJAG4AYwAuACAAMgAwADEANv/bAEMAAwICAgICAwICAgMDAwMEBgQEBAQECAYGBQYJCAoKCQgJCQoMDwwKCw4LCQkNEQ0ODxAQERAKDBITEhATDxAQEP/bAEMBAwMDBAMECAQECBALCQsQEBAQEBAQEBAQEBAQEBAQEBAQEBAQEBAQEBAQEBAQEBAQEBAQEBAQEBAQEBAQEBAQEP/AABEIAPsAyQMBIgACEQEDEQH/xAAdAAABBAMBAQAAAAAAAAAAAAAAAwUGBwIECAkB/8QAYRAAAQMDAwAEBAwNDwkIAwAAAQIDBAAFBgcREhMhMWEIQVFWFBYXIjJCRnF1ldHSFXaBkpSWoaSxs7TU1SMzNjdERVJUVWWRk6O14SQ0NVdiZHOishgnQ1NydILiJWPT/8QAHAEBAAIDAQEBAAAAAAAAAAAAAAIEAQMFBgcI/8QAPREAAQMBBAcGBAMGBwAAAAAAAQACAxEEEiExE0FRcaHB0QUUMlJhkTOB4fAGQmIHFSJysbIjJDSCg8Lx/9oADAMBAAIRAxEAPwD1TooooiKKKKIqT1EtUO9arz49yDzrUbHrYtpAfcQlKlyZ4UdkqA3IQjc/7Ipvsdjt1j1Dwl61ofZVIusll3/KXFBaPoZMVxIUogjkhJ98CnvMP23bt9Ldo/KrjWmz+z/A/hqT/dU6uY4f4tfXmvYxuPcrtcNGf7CrtooorprxyKKKKIiiiiiIooooiKKKKIiiiiiIqu9TMxntujCMTl9DdZSAufMR1m2xVe2H/wC5exDY8WxWepICnjULOU4hBjxLewiXfLqpTNtiK34lQG6nXNutLSAQVHx7pSPXKFVxZrSm1MOl2U5Mmy3VSZsx39ckvq9ktXk7AAkdSUhKR1AVVtEtP4G5rtdl2G//AJiUYahtO3cOJw2p+07yubj9zRhGSTnZEOUo/QOfIcUtZOxJhurUSVLABLaid1JBSfXJ3VatUhd7VDvdvdts9Ci07seSFFK21AgpWhQ60qSoBQUOsEA1M9Ns4k3VbuH5K6Df7ayHA9x4puMbfiJCB2ct9kuJHsVEH2Kk1izy/kd8ls7UsNQbTEP5hz6+uOvCeUUUVbXBRRRRREUUUURFFFFEVPZh+27dvpbtH5Vca02f2f4H8NSf7qnVuZh+27dvpbtH5Vca02f2f4H8NSf7qnVzXfE+fNewj/0n/Gf7FdtFFFdJePRRRRREUUUURFFFFERRRRREUUUURVDM031OlZJdMievOOSn5jqm2HHm3wWIiVHomUpHUkAHkrYndalEk9WzSgZFaspn4vkf0NW7Gt8Oe27C6TiUvuSEcSF9e4Mff/5VelU9mH7bt2+lu0flVxqlNE1gvDavR9nW+W0vMT6UDcKCmRATXc37wu52OyWJMP0Xep64iVy+fRthMV98k8esn9Q2/wDlW9cNL9VJLkafBvOMRLlb3enhSkJkcml9hB8qFJ3SpJ6iknx7EIs/s/wP4ak/3VOq7ajBE2UEu29FPtG3S2N7Gx0oW1NRXWR/QLFsLCEh1SVLAHIpTsCfGQNzt/Sayooq+vMoooooiKKKKIiiiqBzbALXiWVLl3FmXKs2RS1LYlLlvEw5rhKlMOEK9g4oktqPtiUHtRvqlkMYvAVV2w2VlreY3PunVhWvEJ9zD9t27fS3aPyq41ps/s/wP4ak/wB1TqQtWPWeyvPyLbD6J2SlCHVlxa1KSgqKRuok7ArXsP8AaNZ3ay2y+NMs3SKHkx3ema9epJQvipPIFJBB4rUPeJrnlxLr3rXivUtja2PRVwu3a0/TStK81eNFc5wdPLRmmQqxS0x5TESIEO3mciU9+otq60x2yVbdK4O3+Ag8u1SN+im0BtCW0lRCQEjkoqPV5Ses++avxSGUEkUC8xb7GyxuDGvvE5ilKbNZz+81lRRRW5UEUUUURFFFFERRRRREUUUURFU9mH7bt2+lu0flVxq4ap7MP23bt9Ldo/KrjVe0+Ab11uxvjO/l5habP7P8D+GpP91Tqu2qSZ/Z/gfw1J/uqdV21GyeF2/kFs7b+LH/AC/9nIoooq0uKiiiiiIoopKVLiwYzsydJajx2UlbjrqwhCEjtKlHqA7zRErWneLRbb/a5NmvERuVCmNlp5pfYpJ+6D4wR1ggEddQ9WrMO5njhGMXnJUb7CZHaRGhHvD76kB1P+00HB93bH016rueuZ09xhCT2CRlL6V/VCIKx900IrgVlri01GahSYd1xO8Kw/IpKpC+KnbXPX2z4w/hHs6ZvcBY8e6VjqUQPlwdu0+bHxjGEtrvNwBLanE8m4jIIC5LoHtU7gAdXJRSkdpId81i6mZtZTa5mC4nHfacTIhTGsrk9LEkJ34Oo/8Ax3X2kEdiklST1E1q4Ja9VMNYlyJGHYfcbvc3A5OnnJ5TfSBO4bbQj6Hq6NtAOyU8j1lRJJUSaRsxv0Hh+8F6Jva7NBpHfE2UwJ27to25YHC0MUxi24hZGLJbAtSW91vPuHd2Q8rrW64rxrUdyT9QbAAB3qA+mfV3zBw/7bJX6Oo9M+rvmDh/22Sv0dVwANFAvPPe6Rxe81JU+oqA+mfV3zBw/wC2yV+jqPTPq75g4f8AbZK/R1ZUVPqKgPpn1d8wcP8Atslfo6j0z6u+YOH/AG2Sv0dRFPqKgPpn1d8wcP8Atslfo6j0z6u+YOH/AG2Sv0dRFPqKgPpn1d8wcP8Atslfo6j0z6u+YOH/AG2Sv0dRFPqKgPpn1d8wcP8Atslfo6j0z6u+YOH/AG2Sv0dRFPqp7MP23bt9Ldo/KrjUj9M+rvmDh/22Sv0dUHyKwa13nLpGVQbJhEP0TbYtvXHdvkt/boHZCwsKENHb6II229r29fVotDS5uAXT7KljimJkNARzC2Wf2f4H8NSf7qnVdtUDCxfW9nI7FfptpwZ9FkmOyww1eJjRdK4r7G3MxVcQOnKvYnfjt1b71YHpp1aT1r0/xRQHaG8qkFX1Aq3gfdrFma5rTeGvkFPteaOaVhjdWjacSean1FQMaoybX+zLBL5aGR7KbGQi4RU95LBLqQPGpTSUgdZPbtL7RebRkFvZu1jucW4QpA5NSIzqXG1juUk7VYXJW7RRRRE1ZPktoxGyyL9e3y3Gj8RshPJx1xSglDbaR1qWtRCUpHWSQKgTGO3PM5aMg1HbS62FJdgY+VBcSDsd0rdHY/I7CVK3Sg9SANitStwfOY6iSFOkrtGGrSww2Ruh66ONhTjp8vQtOIQk+JTrvjSNpJz7qIl+Y8lHPupDn3Uc+6iJfn3Uc+6kOfdRz7qIl+fdRz7qQ591HPuoiX591HPupDn3Uc+6iJfn3Uc+6kOfdRz7qIl+fdRz7qQ591HPuoiX591HPupDn3Uc+6iJfn3Uc+6kOfdRz7qIl+fdRz7qQ591HPuoiX591HPupDn3Uc+6iJfn3VFbpicqBcXcpwGU1aL04vpZTRG0O6bDbjJbHtiOoPJ/VE9XWpO6DI+fdRz7qItrDcwg5lbHJTDDkSbDeMS4wHiOlhyUgFTa9uo9RCkqHUpKkqHUaf6qy8yDh+WWzOI5LcOa6zZ722B61bTq+EeQr/aadWE7+Jt5wn2I2tOiKo9LnTJwmBeldbl9U9enFHtUqW6p/wC4HAB5AAOwVK+ZqGaRq20pwv6Xrd+TN1LOdEWjeZlxdlwMeszoZnXVxaRIKQoRmUDk49xPUojdKUg9XJad+renJrS/AwgfRHGod3fPWuTdWhMeWfGSp0Hb3hsB2AAU2W88tS7R3WO6H74gVPDVi+6NrbhpUV4kLTdD3G9jToFFzphpr/q8xn4pj/MrE6Y6bf6vca+KY/zKlBrAjuoJ5fMfdNEzYFF/Uy03/wBX2NfFMf5lYK0z03/1fY38UsfMqUVgqtgmk8x91HRs2BRc6aacf6v8b+KmPmVgdNNOfMDG/ipj5lSc1gqpiaTzH3UTGzYFGTprp15gY58VMfMrA6badeYOOfFTHzKkxpxhwozsZDjjW6jvudz5aybQ9mJcfdRELXGgAUGOm+nfmFjnxWx8ysTpvp55hY78VsfMqwPobC/8j/mPy1Fs2z3TLTyOZGY5FAtxI5JZcfJeX/6WweR/oqDu0NGLz3EDf9Vvh7PktTxFAy845ACp9gEynTjTzzDx34rY+bWJ05098w8d+K2PmVXLPhW4/kq7jJ08wGTerbZgFzpEm4tQ1hvYkrQ0tXJQHHYkgDdSR46kunfhPaD6iLbhsX1u0XJXUYVzWWVA+QKJ4n+mq0fb1ne4NEhxy9dxOfyXZtH4M7Ys0ZkfZzRudKEtriLwFS3DaAn71OtPvMTHvitj5tYHTrT/AMxce+LGPm1Y7dstbqEuNNJWhQ3SpLhII8oO9ffoNbf4t/zq+Wrwt/qfv5rzxsnoFWp070/8xcf+LGPm1grTzAPMbH/ixn5tTW9xI8R5tMdviFJ3PWT4++mpXvVbjne8XgStDomtNCAo4dPcB8x8f+LGfm1grT/CUjeLi9uhueJ6EwmM6nvS42EqB941IzWB96tokftKgWN2Jrx243CHdH8WuspctbTIlQpTm3N5jlxUle3atCuIKvGFpPbvUj5mok8eOoFo77Pcvx8KpNzrkWxjWSVbrFVfszi5mOpN+X2lOQ4peLEvf/L4L8cEHYpUpBAUD4iCQQfERXO//bXu38Jr6xPyV0xzryf3PlqorC9LdJVD1K8M+l+3fkzdSvmKh2k6ttLcN+l+3fkzdSrnRFhaTvqXavgK6flECp+a5w1+zrItNcJyzPcSWhq8WPA79LhvLaDiY7iXIOzxQepQb357EEHjtseyne34Dh+jl9xjLomuGXqduEeWiXEyDKJVzjZNwhOPqd4SXFtxVNpaL3SR0toShKkkcSANz/CzdzK1Nzdv5BXsawI7q42snhoalShKsj2PWC43i8M496XJqLNdrVbESLpchB2cXNCVzI7RWhwSWAhD2xSkJJBp8yPLPChf1mwfErXdMGZyJuyZcids9MVZJjbDllXHlLhNvFxD49EFsNuOFTYdcWFKSoBcApLqqsFVxbJ8OvUG9W223rCdNlSxEwqx5XdbYzjl5uz1wkT2VvKgxpMJlTMPghs8XpW4WpYHFIQtY7PbdD7LbyULSHEhQStOyhuN9iPEa2A1USvhrBVZmsFVsCiVgad7f/mbf1fwmmg072//ADNv6v4TUJvCsx5rVyZxbON3Z1uUYqkQX1JfG+7RDavX9XX1dvV5K8iMG8IDUPSfNbjllvcg3x+SXGHZk6N6KDqCvfl6480ncb9SgfLvXr3fo8qXYrjEhIbXIeiPNspcSChSyghIUD1Ebkb79VeL2pWmOf6aX6SjNsUueNvOvqKX+g3hukkkcFJHDY7E8R4h2V5L8QaRpjkjrhXEasl9j/Zb3WVtqstpLTfui6afxDGuBz1awrPvmsum+qjF6zbUuVd2srVC6CFGszMeFBWQfWJcISXFAbkkq3JAACuoCqDUmG7cfola4b7r7Y2S846pLaO/t6/q19KHnT0y7ZElKHWH0q4o99QHV/TThj+MZHnF1bsmPWq43+eojjCtjClJRudgVEDZI3O258vbXl3OfO7aeJ3/AGF9mjih7PiIrdYKUrg1oAyFcAN1d69PfAEmSJvg+QnZd4VcHRcJSVE77Nev9gCe0Du6q6PqkPA608zPTLRO34xnNpj2y4JkvvpitFJLba1bpCyntX5dyTV319CsLSyzRtcKEAL8r/iSaO0dr2mWJwc0vcQRiCK7VH8k/X2er2h/DTKr3qesk/X2er2h/DTKr3q9DZvhheVl8ZWBrA+9WZrA+9VkLSVH5Z2z6z/BFy/HQqkHMVHLgds8s3wRcvx0KnznXNt3xBu5lW7L4Dv5BL8xXlPXqjzryuqkrS9INKVn1LsOH8wW/wDJ0VKeZqIaVq20wxDr/eG3/k6KlHPvoiTgQIN4zuLarpDZlwpuOXaPIjvIC23mlvQkrQpJ6ikgkEHtBpDE/Bc0UwyQ7IteMz5YVbH7LHZu98n3NiDb3wEvRYrUp5xEZpYSAUtBO4AHYABuY0d9S7b8BXL8og1ZRrc/ws3cytTc3b+QVLMeCBoMyxKju45e5noy2Is7rk7KbrKd9BtvNvR2kuOyVKR0DrKFslJCmVAlspKlEynEdD9NMFuFtvGO2GQi5Wtm4MMz5dzlS5LgnOR3Ja3nXnFqfccVEjkuOlSgGwEkAkGfGsCO6ohSVNzfBJ0EmxrNAOHS2INltUSxIhR73PZjzbdFJMeLNbS8Ezm2ypRCZAc9koHcKINuqGw22pSsFVsCikzWCqzNYKqYUSsDTvb/APM2/q/hNNBp3t/+Zt/V/CahN4VmPNQjPNd9MdNbwbBmGQiFPEJM5LPRKUVtqWUJCdh1qJSrq7qj+WeEBoO9GRZMnns3KPNjIfkxXLcqQhhlwAgyElJDYIUNwr6tMF3xuPd/DKgT7lZhKjw8NS6y66zybQ6JDw3BI25AK+7VOM+mTS/K81x3Lc8yDGnLpdXprBiYrHuTV2acA4kOuJKt+rbgeob+Umq9AcCtwcWmrc09ao+DF4E9sNs1QvMuTZrRcldKzbrRPIi3P2x4N7KWkbEAhpSAAR2GlMH1Jw2Bl2W47otd7bi+E2zBnrjHci2lvlEmocaSX3OSOkcWAs7hRVv1b77Vr2/FWtFsn091EySz3u/4c1ZZLHSv2/Z61S333Hua4yNwj1rgSPePZxSKYbpeLdneoermV4jidwgWqfp7MQytyCpn0U4HGAXAnb2xSrvPEny1pjs0MLi6NoBPouhau17fbo2xWmZzmtyBJIXSV18IfTHAbdY4GY5mJNxmwGJK3GYqipSVIB6ZaEjZsK33qy7LerVkVqjXuyTmpkGY2HWH2julxJ8Yri7NXLXjk22XyFecuxDInMbgMF1NnE633cJZHFooO4BHsSFA+9XU2ic/Ibnpdj0zKbGxaLkuIOliMsBhCOs7ENjqRuNjxHZvW9c5PGSfr7PV7Q/hplV71PWSfr7PV7Q/hplV71dWzfDCoy+MrA1gferM1gfeqyFpKjN1O2dWb4JuX46FTvzNMt5O2cWX4KuX46FTnz765tu+IN3Mq3ZfAd/IJfma8tq9QuffXl7VJWl6J6WrA0yxH4Bt/wCToqUcxUR0vX/3aYkNv3igfk6Kk3Puoi2cekNRtR7O68oJTJttwhNk+2dUuO6E+/wYcP8A8atE1Ts6I1PZS0tbjS21pdZeaVxcZcSd0rQfEQfkO4JFOkXPc8gsiPJtNlu6k9QkGY5CUoeIqQGnRv5SCB5AOyt4AkaADiOtea1GrCTqKsw1gR3VXXqkZofcVZPj5380r4dRszPuLsnx87+aVkRHaPcdVi+Nh9j0Vh1gqq99UTNPMyyfHzv5pTc9q5lDUlTBwm1Ftt1DDsgXx0stOrG6UKV6F6lHq8Ww5J3I3G+qeeGyAOne1oJoKkZ+/wD4MclONj5iRG0mmORVnmsFVAfT/mnmdZPj1380r4c9zM+46yfHrv5pVoN9R7jqtJd6H2KnhpREyS0gNtubJHYOI+Sq99PeaeZ9k+PXfzSvnp5zM+5CyfHrv5pUroOZHuOqjeIyB9irCM+Vz59IOW23LgnfbydlJuTZDhBcKFlPYVNpO33Kr/075mfchZPjx380r56dszPuRsnx47+aVkMZ6e4Qud6+xVgLuMxaShbgUk9oKEkfgpP0fJSCElABHH9aT2eTs7KgXp0zM+5GyfHjv5pWJzLMz7krJ8eO/mlSDI/T3CiXP9eKnq7hLcCQtSFcfY7tJO3vdVfTeLkP3R/yJ+Sq4uGe5dboEm4yMSs5aitLeWEXt0qKUgk7AxQN9h5a3jfdRT7gLf8AHo//AI1StPaNhsbxHMcaVwaXYf7QaZFWIbLabQ29GDTfT+tFL5UuRLUFSHOZSNh1AfgrWV71QqLm2YTW1uN4haW+jeejqS5enAoLbcU2rsjEeySduvs2pQ5TmZ9ytk+O3fzWr9mtEE8TZYnC64AjVgcRgq0kUkbyx4NQaH5KXGsD71RL0z5p5rWT47d/NawcyDN30ltuzWOGpXUHjPek8e/o+hb3+uFWBJGM3D3WosccgfZZ3hxDudW9DZ3VDtMovD+D0zzHR7+/0Dn9FOHMU122AIAeeekOSpkpfSSZLgAU4rbYdQ6kpA6gkdQHeSTuc+6uXapRLJVuQwV2CMxsoc1scxXmJXpnz7q8zKrrcvQfTFZGm2Jj+Y4H5OipLzPkqJ6ZrI03xQfzJB/EIqS8zREvzPko5nyUhzNHM0RL8z5KOZ8lIczWpcbm3AaRuUqefWGmGysJ5rPYNz1AeMk9QAJrTPPHZYnTTGjRiSpxxulcGMFSVsvuzZcpqz2kD0ZIHIuEbpjte2dUPuAeM7Ds3Il0XH7VFs5sQihyItCkupc9cXSr2SlHxqJJJPlprxpFksUNfT32DInSldJKf6dA5q8SU9fUhI6kj6vaSakteRM/7xkM8tDUUDcDdadR1VP5vbECp9HDB3RgY3PWdp6DV761AVMy7HcDZJylONkFUGSo9bzY7UKP/mJ8flGyvLtscz5Ke8gGP3mE7a5t3jMOJVuhwPoDjDqexQ3PUQfF74PUTUQgXAuuvW+Q+wuZEIS6WVhSHAfYuII9qr7h3B6xXR7J7Ra14sMr6n8priaflPqBlrI2kEnn2+xkDTsGGv09dx4HeE6cz5KOZ8lIczRzNejXJS/M+SjmfJSHM0czREvzPkrWm3SHbg2Zjwb6ZfBsbElStidgAN+wGsuZpCXHbmM9E4pSCCFocQdltrB3StJ8RB6xWi06fQu7tS/TCuVfWlFsiuXxpK3ddM025FeoMvH7nFjrdW69DebQkML3UooIA9j5atamDFMheurK7fdOCLnEA6UJ6kvI7EuoHkPjHtTuPIS/15Jk01qkNomIqQG0DS2l0uqDVzsamnyXoo4o4GXI8s86509Aqyi3WHAcnxZSnG3E3OeopLKz1KlOKB6h4wQa3Id4gT3nGIr4W40lKloKSkgHfY7EDyGpXkl+RYYIcbaD8yQejiR+W3SL28Z8SR2qPiHeQDEIjLrXSPynunlyVdJJeI2K17bdQ8SQOoDxACrvZE1sD2WRpaY4wATdIOAo0VvEXjgThgNlW1o9oQwNDpTW841AqNuOrL557it/mfJRzPkpDmaOZr0646X5nyUcz5KQ5mjmaIl+Z8leadekvM15tURd86aq205xX4Eg/iEVJOdRXTdQ9TvFvgWD+IRUj5iiJfnRzpKLDn3i5RLHaihMqaspDixulltI3W4R49h2DxkpHjqzIWk+GxmEomwXrk/sOb8uQtSlnyhIISn3kgCtRe4uusFafLqoFxrRoVcc6TeaYkJCJDLbqQeQC0hQB8vX75qzzpjgg9zjH16/lrA6Z4L5uR/r1/LUHX3i65oI3/RA97TUDj9FTuRwYCMeui0QY6VJhPkENJBB4Huq36RmaW4JLivRF2BtCXm1NlSHFhQBG24O/b11kcFij3QX37N/wrhWuw2gWkywRtoWgYGmILjsG1daxW5jIrk5Na79Q6KrosOE69cHHobC1m6XDdSmwSf8qd8e1bbLEWMVGPHaaKtuXBATvt2b7DvNT5jTHDGGyl21GU4txbrjz7qlOOLWoqUSQR41HxV9VpzhX8gM/Xr+WrvZ1ldZLNFG6Nt9rQCa6wKHG6ufa7U+WZ7m+EkkY6q4KC86OdTc6dYX/IDP16/lrBWnmGfyCz9ev5a6Glk8o9/oqulds4/RQvnRzqYHT7Df5Ca+vX8tYK0/w8fvE19ev5axpZPKPf6LGmds4/RRLnRzqUnAcQ/kRr69fy1icCxH+RGvr1/LTTSeUe/0TTu2cfoojIRIDrM+A+GZsRXNhw9h37UKHjQodRHvEdYFS6LmdoesLt9krMcRT0clg9bjb3V+p7e2JJHHb2W4I7aTVgeJD95W/r1/LSC9PsRLvSfQgDrBKA84EKUNwlRTy2JAKgD4uRrh2+xzzSaayhrXHB1SaHY7LMfKowJwFOjY+1dC0xzNqNVDw3HhnTNR3ppdxnu3u59Uh4cG2t90xmt9w2O/xqPjPcBS3Onw4Nin8jt/Xr+WkzhGLD96EfXr+WulZW9ziEUbcN+JOsnDMqjNbpJ3l7xjv+iZ+dHOnU4Vi/8AJKPr1/LSLuFY6U7Mw3I6/E4zIcQoH3wfuHcVY7w/yj3+i095Ozj9Foc6OdaPRy7ZPds897p1IQHWH9gC80Tt64AbBQPUdurrB6t9gvzFWI5BK28FZY8PbeCX515xV6LcxXnTU1Jd26cr209xcfzNC/EIqQ86i+nSv+7/ABgfzNC/EIqQ86IpXpgQrUBoEdlnmEe/00X5auNQ7qpjSo8tQEfA0z8fFq51DurVH4n7+QUG5u38gkTWBrM1gakspJVJmlFUmawVBYGklUqaSVWFEpM1tMWz0Syl3p+PLfq47+P361TXG/hU+EflOOZlKw2xXG4RolikohriRZbkNEp5UViUp155hSJBSEy2koQ242N0OFfPdATustmfa5RFGKkrVLNHAwyS5BdqGx7/ALq/5P8AGsTYAf3V/Z/415sXvwhNSLTjdjkScivhdvLbtwbtickuHoZuOHFMocW503ozmpbbx6P0SGwkIUUEqBThZ9eMnyyKuJD+ijWQRGlyWWzk97dbnoQkqW2kmd0jTgSCU8VEL247BW3LqfuC0lt4gU3qme1bHW7jXcvSg47/AL5/Z/41icb3/dn9n/jVEeB1rVlGpcC449kj0icm2WyDcos2U4lcji/ImsKYdUlKekCDC5IcIClJd4q5qbLi+kq5ctn0LzG8YjArpRiOVge3IpiOMb/u3+y/xrE4rv8Au/8Asv8AGn+itejbsUtEzYo8cT3/AHf/AGX+NYHD9/3x/sf/ALVJKKxombE0LNijRwzf98f7H/7UxXm2fQqUI3TdLugL5cePaT3nyVYVQvMf9Ko/4KfwmtcjGtbULVLG1ragKtcsPHILUdu2HM3+vj1p862sxO1+tP8A7SZ/1x6budRsuTt/ILNm8J3pfnXnjXoPzrz4q0rC7g08XtgGMj+Z4X4lFP8AzqM6fL2wLGvgiH+JRT/zoibM1y7IME0+1IzfE7h6BveP6d5Bc7dK6JDvQSWUMrbXwcSpCtlJB2UCDt1gipLHvmrWkmomnMHJdV7nqDjmoRmwJEa62i3x51tlM216ch9hyCwwhbZEZxtSHGyQXEELG2xRtGDWjVH0yab3+RLj2zKcQutnmOw1pQ+2zIVHaWptS0qSFhKiQSlQ323B7Kllr8GDHUTF3LONRM5zyW3Z5ligO3+ZFQLbFlNhqR6HbhR47aXVoSE9KpKnAncBQBIOqPxP38goNzdv5BUxevDkya/YzkMfAMPxVWU2VVgldDHy5i6x2os66IhusSXI7RSzLQVJSpocwnpQoLVwKTYGSeFjExvWOFpBdrBZoz1ynt2hlbeTxnromS5DU+l/6GhHSCJzSWemWpJKhuG+JBrFvwLca9AOQp+refTj9AYmOxnHDbGxDiw5bMqCWm2oSG0rZdZBCik9JzV0gWOITvzPBKx+TkjmQI1PzeOwvJ28x+hrKreIxuwSEOvKJiF1xLiOaC2twoQHFFsIIQUTWVBdEvCs1Dnac4VL1b0xmInZFp45lNru7FziqN/fhRWFyg4yENNwlvdMl1sFRb4KO5b4lIVheHLY5WFZTkfpfx6TMxe52u3PvWvLGp9jQmfyDT790bZ4sttltxLquiUEKAAKgoGn61eBJgMPEF4JftQc7yWzRsSfwqzsXWXDJs9tf6EvdAWYzfJxRjMeueDgCWwgAI3SXFjwWTFl3m+Ma6aioyC9i2rfuqV21CkOwemSyUsIhpj9GWn3GlMlstKTsop6T9UODRRwUJzDw67FiNtx1M/G8bjXm72WXkEmLcc7t0SGIbElbCPQUw8m5zj6mlqZSgJ3SN3C0fW10ViGU2nOsRsebWFbi7ZkNtjXWEpxPFRYfaS42VDxHisbiqfZ8D3FbNEgekzUnNsYubUe4Q7ldbW7BRJusebMXMfQ6lUVTLJ6d11Tao7bRa5qCNh1Vdtstsez2yHaIZeUxBYbjNF51TrhQhISOS1kqWrYDdSiST1k71EqJpqSxrgrw5cKZtuZu5LGQULuLkefIKv/ABS6wmMCnuQLegK27Omb39kN+9TVd6/6KHWTBGYttjwHLzCQ8iMJjqmUONOFJW10yULU169plwKCFjkykFJSTVzs2090tTZjkM92RVW1WfvUDohmRhvXC9vyi9Nw4mKz5ihicrBpL8hhxCfQ7rqIj/ROp6utxMkNoCu3pEBPiArW8HC73lq7Ls2OXZ6DMemxn5bbS+HoyCN0upUe1QbUptwp3G6OlJ6gaujIdEcv0kwRDOV4vb37O5Ih2p9uNdG5kZKJMhtoKQXYzTiXVPLaW4ejUpXQp4Osp4tpojwZMduOR6msRrTM9BzER9mZQ23YU660xzG4IJCXlHbbrAPZ2162K2Q2mzTPaKAcc6V9SuBJZJYJ4mONSfpWi650IxCTpXoRKyiyKks3m7S7XakzW4yVPLipnBpQabdBQsB6XPU0sjZaXEK60lNWraM8zDHZM61360Xm9BuO9c4zs0Qokow2Uth4qS2pLZPNzZA2TuAeRSOKlYaS6Bw9PFT5N6vDd5dmx4ERDDcXoIrLcNxbrK+j5K5Pc17lzcABtpKEoCTysHIcPxjKw0MissaeGUONI6VO/wCpubdI2dvZNr4p5IO6VcRuDsK8fK8yvL3Zk1XrI2CNgY3IBVVmHhJtWa2pmWbGX1lV4tUJHo1YZW5GkXeHBddSwopdV62XzbUhK0dSeZSSEqkfq0gN28qwu4hy7xmp0FAlRlhUdbbjgW4pKyEkJaUSE8x1p4lW52kUnS/T6Y85Il4lb33HF9Ju63zDa+nbkFTYPU2S+y06SjbdxtCz65IIZ8C0Sw/T+X6Ot3SS30MNR2VyI0VstJb6TYgstN8lEOrBUrc9Z7N1E61NMsrVI5vbo9usUSdbZExyJLZQ9JEVc2MpwFbDbu44PlAUeIPWN9l9qk61vuztw1DTpsb5kVpaUwbtKt8t8GSlsAIbbRKS44otuKDqyErC0lhQ3CSRU9Z00wWNHeixcbiMNvBkfqXJCm0srK2ktqB3aShRKkJQQEkkgDeslac4c4Fres/TSFvNyPRbsh1yUl1tJShSX1KLqSlKlgbKGwUoD2R33xyNa2h+/v7KryROc6o+/v7Chq7reMe1gs+EQbxOlWiYn0ctuRIU8qOTHljoite61IUWkrSFEkFCtjtsBI8w/wBKI/4KfwmtlOl+GpluzhCmeiHnUPuPG5SS6XEoUgL59Jy5cFqTvv1p2B6gKar7aodnmJiwvRBbLYWenkuPq3JPtnFKO3V2b7VotTmOYLua1ua5jDXaq8zY7Xy0n/dZn/XHpp50550dr1af/azP+uPTLzqrZcnb+QWyzeE70vzrgCu+OdcD1aVhdpYArbBMb+CIf4lFP/Oo1gSiMGx0eS0xB/Ypp95nyURTrRs76gH4Glfj41Xkod1UNo5IaZ1BbDqwkv2yUw2D7ZfSMr2+tbUfqVfKh3Vqj8T9/IKDc3b+QSJrA1mawNSWUkqkzSiqTNYKgsDSSqVNJKrCiUmaeLd/mbf1fwmmc0dO+hPFDziQOwBRArDTdKNddxSGpeB2/UvC5+H3GU7FEpTEiPKaAK40ph5D8d4A9Sih1ptXE9R47HqJqptIPBJsWmOUNZS7coTjsclxuPbojzDa3diAp1Tz7ylJTyJS2kpTy2UrmUoKbdMuV/GXfrzSapkv+Mvf1hraLQ5jSwE0OY2rDixzg5zcRkpRRUTM2Z/G3v6w1gZ03+Nv/wBYa16UKWmGxS+ioaqfOH7sf/rDSZuE/wDjsj+tVWNMNixpxsU2oqDG43D+PSP61Xy0kq5XL+Pyf61VNMNix3gDUp9ULzH/AEqj/gp/Ca0jc7l/KEn+tVWpIffkL6SQ8t1W23Jaio7fVrW+UPFFrkmD20ooFn52vFoP+7TP+pimHnTzqC6g3u2NJIKmoshSx5AtbXH+ngr+io9zPkrNlydv5BbLN4DvWxzrg6u6edcMdG5/AP8ARVlWF2na4K7GmXjTiSldjnSbaQR7Rp1SWz7ym+Ch3KFbvM1Mdd8WXjOVIz2OgJtV+LUS5K8TE5ICGXFf7LiAlsk9im2h7aoNzoi2mZMqLIZmwpK48mM4HWXkeyQsdh8h8YIPUQSD21Zlu16nNRktXnGEvvpACnokkISs+Xgset97kr36qnnRzrW6OpvA0P3tUS2pqDRW+de459yMv7Kb+SsTrzHPuSl/ZTdVFzo51HRO854dFG4fMeHRW0ddWD7k5f2S3WJ1zZ805X2S38lVPzo500R854dE0fqeHRWsdcWT7lJX2S38lYHW5o+5WV9koqrOdHOsaE+Y8OixovU8OitE61tH3KyfslHyVgdaGz7lpP2Sj5KrHnVb62atXjSuJjCcewxvJrllN+ZsMWI5cxBSlxxtxYWXC24Nt29tth2779WxaA+Y8OixovU8Oi6UOsrZ9y8n7JR8lYnWJs+5eT9korjOV4WMqzWzIImT6ZP2rLMXvFptlzsyrsh1oNXBYDEhqShshxPElRTwBBAB23roLnWNAfMeHRNCNp4dFY51gR5sSPslFYnV5J9zMj7JR8lV1zo507v+o8OixoBtPDorDOrYPuZkfZKPkrA6sA+5p/7JR8lV/wA6OdY7t+o8OiaAbTw6KfHVbf3Nv/ZKPkrA6pb+5x/7IRUE50c6d2/UeHRY7u3aeHRTk6ob+5x/7IR8lIv6lyVIIi4/xcPYXpICR3+tBJ97q9+oZzo51juo8x4dE7s3afv5LZdky5kp2fPf6aS+QVrA2SAOxKR4kjxD3z1k185mtfnRzqwxgY263JbmtDBQJC/zXodlmyI7anHwypLDaR65x0jZCR3lRAHeakn/AGK7T/H2Pu/JSmleLLzvO47q0BdmxZ9ubNX4nJqdlR2B5Sk7PK8nFr+HXTtSUlqXa022/WyVZrzCamQZrSmX2HU7pcQRsQRXM2d6aZLpq89KbYlXnF09bM5pJdkwk/wJKEjkpIH/AIyQRt7MJ25K6kooi41jTIsxhEmHIbfZcG6HG1hSVDuI6jSvMVeGqek+nr1muWUtY0zDuraS6ZMB1yIp1Z2HJwMqSHT/AOsK8XkrgXJtUM6tF3fhW+/KbZbWQlKmGlkD31JJ+7RF0VzFHMVy/wCrHqP5x/ebHzKPVj1H84/vNj5lEXUHMUcxXL/qx6j+cf3mx8yj1Y9R/OP7zY+ZRF1BzFHMVy/6seo/nH95sfMo9WPUfzj+82PmURdQcxVU6/ae51nsfDZ+nj1hRdcTyaPfgi9PPNR3UtNOp4bstrVuS4nxDq366rX1Y9R/OP7zY+ZR6seo/nH95sfMoixyXwbtW8rx7MMivV+xJ3PstvNln8GjJbtcSNblAtMJWUKdUT64qPEbnbsq8dOntX1tTvVai4cy6FN+gfS6/KdSU7K59L06E7Hfjtx38e/iqkPVj1H84/vNj5lHqx6j+cf3mx8yiLqDmKOYrl/1Y9R/OP7zY+ZR6seo/nH95sfMoi6g5ijmK5f9WPUfzj+82PmUerHqP5x/ebHzKIuoOYo5iuX/AFY9R/OP7zY+ZR6seo/nH95sfMoi6g5ijmK5f9WPUfzj+82PmVt2vVrUGZOajyMhKm1qAIEVlJ/pCN6Iuk1vttIU66tKEJG6lKOwA8pNOeG4flGpkhCMZaVEs3PjJvjyP1IJ8YjJP6+vxBQ/U0+NRI4mf6JaWYFf8Yh5TkGPN3a4FQPKe+7JaSRsQpLLii0kg9e4SD2eQVeaEIbQlttISlIASkDYAeQURNOJ4pZMKsUbHcfi9DEjgndR5LdWTupxau1S1HckntJp4oooi//Z;" vertex="1" parent="1">
          <mxGeometry x="170" y="540" width="201" height="251" as="geometry" />
        </mxCell>
        <mxCell id="1F0DK0M1qxSwLMNNfe65-3" value="" style="rounded=0;whiteSpace=wrap;html=1;strokeColor=none;" vertex="1" parent="1">
          <mxGeometry x="250" y="720" width="90" height="40" as="geometry" />
        </mxCell>
        <mxCell id="1F0DK0M1qxSwLMNNfe65-4" value="" style="shape=image;verticalLabelPosition=bottom;labelBackgroundColor=default;verticalAlign=top;aspect=fixed;imageAspect=0;image=data:image/webp,UklGRj4xAABXRUJQVlA4WAoAAAAQAAAACQEAawEAQUxQSDcAAAABH6AgbQPGv+P92YiIOB6oiSRFAu6N8K8BpC75RPR/Arr0001/xwAf/+E//If/yA/+8wF2l34CAFZQOCDgMAAAcJUAnQEqCgFsAQAAACWM64kmTb8jrWCrVye+tf1j8We9kqR1H8Qf6R/m/838w1bftX3e/Y3/Ae8B2XxmPXT4l+kf2n+2f3n+5f+D3sPat+rf+h7gP8E/iX9A/s39p/vP9q/8fwgdJb+c/zb++f2/7+fu4/kv8r/gHuV/uf9A/qvuAfzz+YfPD4gv7QewB/Nf6r6t3+F/3n+Y/eP6Mv11/2/+I/df6C/5L/Q/vE/f//jfgB6AHoAfvD3TH+a/Gb3w/E/1H/C/jr/b/9l/hPQt9G/fPxh/br/Fff1cP/E/t/Fn9ifqf9Z/v39x/v3+3/yH2V+6Hwj9Vv5G/AF+H/xX+m/1X9Yv7j/1P8d1y7IHwC+wHzf+0f4L9pf73/4P857U38n+UnvV9d/8B+XX0AfzH+af4b+0/rl/dP+V7OXjsUAv5p/UP8T/jf2I/w///+17+J/5v+L/1X/A/2X//99H51/df9n/if9B/s/9B/8f+h+g/8g/mv+E/uf+O/03+H//H+t+7n2Oft/7If69f8JNPmTxptExptEw8o1lt6irJ402iWF9DYb/Xk+Of/Mv4XhObo1/vHPvQ2ahSbPLkk02OOz5cpo9OMmV7P2bQfJuqGy4iYG8bbOfIvIxjw0H4KB4QcLYu7zVkO0RDsZVQiv/wJ5cIfyqrfymut/9Qvg1ExDm8yLBQVYUGWM6svPju81zA8gcrAAejw5qTcjmQrs4x0xN03WyqjJL+nklx+Vtb/gPKAbEXQGv0Ee0qqZvUZD/6fRA5P0fKqUF2K4Y+6cJk8vZME51MTX+597SCDwlh3Glib2K+7FABi9tPfsjZROf/M4Ye743Vu2cJJSAsFqb8gBtLAuQ1Fk3TQJorVH7A5d7eBiCGLSO8B/xtQgSrqjlYwIRTlkLCT7/ZJz+iK2GNi1oVYCk5tz1W21lEOtqLOdCvE7olS22lKQnbwewmublS3munhgtuSe/3jkMtOvYNF2WyQVYX88WAgNi2URQJCo2AR8utK4kVUHduiIbKy+tPOIEAmJ1rDQkKmE2gRUnQzKnTkVZ9UiB5fufmMqhtlXL5CjxdYzjTXMgOpLXBHXxIHCX+AY1Cn4ngjTVajRS2eE5IOZw8adIBi1Ogz8WYKgqUPxand70IdN843HdGDIR84eUV9xCSwEwjV0IPO/b8XqoDHIlbI2JxQ9d2eWvT5k8abRMaXzpLzYFAiZmk4pIQ1XbYsS+SvRqfuUjjLt4cRHvh2Gw1fUrvpFGju9W5PCyRH7RTWx1tujBYqvxn/Y2nh9cPHf4GVkTicU3zKHOVEghJc7TUy+kQoodZg21MO+e5Dp/xCOSxjQyUor1SD9lzOhyJVW4pKzlIGeqziZ1ujRhCKEn0ohU6FdxdawSCAufOs1wTjnafxRf+esoNnYuSqaL03f+HCeNxtJ+gVW0oyPehS7RCK3M546zS8n3isSe1V/skDfgYHvTUof6fQ2zpbBO88PuDqP8LGO0PhpjIM8NWKCUuG0Y9e/iRd5xxTtc/C618stYsLSEnDcufBIUVeJPeXfFc4uJU8abPvNnrflQu1o+WvrcOK4BDommn95i61VevY20a55AQKzJ402iY02bgAD+//e3PAAAFFXLKqYOKKaOJmsbBrjhIk9ZJ9Ik9Ms1U8Qro+kuNsD8fCJmCutUkfThFsYNyVTpHsov+iuwiJbcd2K0AVzXOiX7FsVWhCa+cLbfUpxAxaAwQAilxKAzmilqvHixjhKcUF/DamKgVIhYlse1PwOhWhSSwfMgDmKgQLLmtLshJ08/i5/xMRisjHdKlIPN/baX50PTfyOHjxXj24s2a3GaUD8YwcQiz06vr1yFHsln/ZrxjyCKxOM8BDPI3WBWLFUV8VTMO2uUS2udTcU/J9/85Fu0L6XRpknJnEITQYpGNWiOgi7NaLGCA5ZCfO4krH+edq8d2K9VGeQ3XwaMkqMbzKiJV1PjrMOz6TYdN5JYnzLM7pN5NH0gPSG/f/a5Jw7huJMzdgVer6YunNXgG2KlztqyDwaMO+3lMB1IKkOh9ha6fYKkSmyMX4ypUZTsI/0QpcaF1jJIhMZtLMPcW4IinJYHZU2SwNdT1H/ClImFjsTG/7MlU6TR/pnMrsaegrJxg8f3pX/mfavBlMArd5Nkd06YSq1WAJEKYzCLFT8LNsbogi8Z1EVfcWw8JqO7ob9wUXkCRXtmX/8fU7/O66J+MGjUstrefc3c/+ZReSWnXAEQquI9T4ZJrbo5V54Npf6JNi2yQCohtZ4AnnolMqCzOyWm/Z3H5PIEpgCYp0RtSljeQNgexjEcGgoV1rrTnZ5ptPosWTeqrlFFabhD4DYVNfnHH4nM1wpjvQjZdKGPfGPtP2ffTpOrUSPhewDiESg1jExuVY0yTPSlwct1rS+v3cFI9fWS6qccocmgaJ4uZMXamnqeiefJ+T/s10niivZVPTbGJS1AlY8R5z96TRY5lVnOxwMKBXFDI5vXNhl2f+E0fl06WOGX9YB6X21goc9wQ40GPmqXDrJhg7jmMDxYwIYhPDKtsmWGuLafVUn4sb0dBMVfeJdyEFYXnVgG9JzKhCjSFK42rsLu6ZbX17WM2gS5nH3/oCSps4INmY+zOYppRz0nfOM2f2F/cs3wPwTp9S2lOsCs0BaSnnTRQjPeG1WWoS+PXkXds9vXuHU7sXPIluQ7F56kF07PMPHs/G230maxxaB33FenqzjuUQBgTfDU7kXa7Gx2H2NS7O3x585np2DGuWE78KxbCqt48N4LPLZdv5MmTJ/BEbi7B5CP/woOGPKX5z9soUhnFus06CuvhS465tFbf2eZixJAyq8OUxlXF+jPH06SD2VUTss4DG5S2Q6uAjl1WBrLFiQuzezcwLOjateYxw+/M46TF3wzhv9+39NnAq/6Oi9jwkchYRtEetqTj9aKGMdFw37wFA7hdfZpHxZfS9KSNTzAGrN3OrsF6+Inx6rt91ecm3ugNlyRDXKCwX3MCbNC5ZQ19545VnhahMUsS6yrDKkl29df0ccbQVnH1gc/BsfOU/lerlinkf5g25hxdS5TE/PsM2WnSLUEHdKcHX+xVEeFOV1DpsVgXy6djBFYIhJpPce/EQ0xuzSnIxf6/o2Bp2PxHgzeAUwovAqNxU9Y3rYIGFdMLPoX9SEMRZChtYmiQKOQr18vhwwF3iaTkEXnRdnNBiTRKX1kXUEvebkM+8M8O9sZhnjDS4t3xQrYf9NhH/dXM9dRSrjWqhbrJhjzoy4cunRpapfSc87snmts3n5PfrXHzrm/DscfrHHKvb2CypZcRENyo8O7ML5q7CglOs2AzLccl4y8KANvMhahK3kpYE2WEXojUT7H/Vcr0cY43Vh5eQSLu5EBReN9cDt9cDp/tnvOLxLwD7wBKM5KBGcIREb9f9Dqy63YK9PVIH+VIDcsBdVGpG8VY8Wq2rx+LkjiswrFk+74ynQXYkxcxEn6BPaqXRzjHaPdxkwisovoB/5g8WSwy+rjf74DYugfs+KfK9NoYu8EX4dOD0Ckl/ZOpih+9LVP0KF9lcMtz4Gbf343DWOcZY3pfBAA766fj8Mx+vw4Dd97CdaHMKGz1x0hv/fUo8o0flwJpDSP0t9sJj0CASaxTw1eGLHRdg6AnIipsianCyE/oplOZDCStNf9uzoR9wuvlkBKfFaDLJ0Npf9d5d3s7ctyR/Kv5WbtF58DrODaU0Mn7dcpGnfIv8hZr9n1SAHHR1NOcbcxTEFcR7cPYHZJcryzYuUGtfi5Vfc1tCrok6LMAeeeHb47e4TAor/JBJMlYXOeUgVqP7eq4Wxt39Z5e4JoJ2rIZtCiJjn5dgnMKw/cbcfMDS51SxqcEZuj62emfGCszzOG1wivOWSxYJNs/uLUC2Jwk5Hw2cW/pA0yJtZ0n9yIS2j9iaurrYwZdBzLaIIGxrHYRIiDmahxMK58dulGqNVYAn+UxTYADuLrpR7dmvocYIu4VQGMvw8oAAAQgApi6IPPUszNMkxGHjboB7QBlcH+MTe5lyQf0S+hMgMRQLlbP3H27o36/dquinPUipiR7AxxtgyKVLEpDPYi9VzblS3MkltbF5JcNr7bFvHbgM0OFlvlcn68fJcoL2VgDzlw1kq8kMIRhGFXS9AQPA6xRdoi9X2nYxbQXp6w22l4Uwo4l38ZaSUF7lvrzZFZf7xlQ7zUn/6tQ/c620acRR/xf6FjNofKSJuJyfsTCbUL0476PuPd+Kjhp2CS9oUemO4hmk9lOIVtQFm6JhKWlNE+Yixy1ICGO7bH7I17Y/hSmMabJQO11aBhmGJK9v9OLApn33NxRIxv7iYxoeGnOx6Z9usRtNYT7m99NN6ROhUFWkiA1CpwKS9e5mNXDmzPB+UMUQWdgv8xaJcvDPdj1vvUDEssvsbiIiFENakJtedKdEQX779gD28ZKIe8x8pi/N4UjC8tXYTIEwgM9DauZblATRjHoQcJQMkt6Cn5lJ4a6puDcO3lxLu7T2/4LNJOY+YEAEKsdHvEJC8VSzJmKt3GtJB+vQzuSZuy2H0psFubGhEV1bZ+bAO2JcVxK/76DTcwEtymPPkzMUz0jhQM+z4Z4Yb2x//h1D7WuWfT1SClw2bYhJOSJJexCzmWWlHhKf9uBZmQ04H8xFuqSayRvT8scRXMvELHakHv84RvntdaZfoQn03Agw4a/DKJQn4OcB9lImxHhQwgz+V3yJwZD3xaXGFDaWZKYeuNgRIXpYm6fk0HkZqDC0FbAmHauDU2QotN/Ce8DQLSYI6kzUJXFInJqILv/12n61wbyzUdlbbkZT6IyD6DFYvhl8S/u/1IKVhRD3LEpx8W2zmOT/5mnV8R1Ut4U5Wu6AuvVZxjNk21dHTJR81dIXJLvJRQJK3h5jIfCJRSaxQ8C2K9lsTvBaChBdoH8jIJRt6E6aqEqH1FtiFV+HRh5+xMrdTmW0F0GFiQk7KS5HiWrk0MchIYASqpyICaShlpXJTPukdUBEidvoiNRBpc5C9IXOl3NeiK3Li1fjqMBu4ssknYPMPwjTIinW7yuKdwJY5DeUJTjf3XXm7g8otrlbFR+nAY0cYcolw42rkvgnQG+L0vhztHCk/ui//g1t1sPHmL+fXh++GQrF6TU1a8XSXhhBwoAO9RjbDh/tmimDtNiNUj6ga8HOsEX5DmeO/hreEUWQtb/XYBihCCOK9um8F6cq1K4KXmnhmQJHJZw518zJ8YI4nGp9jrYsUQ/oWpReW8GSFnhHlPM44AjqyUKNgZRF1AI3+Wjfi9X3Rzj2HmetnYLJZFa2J3DseLhJ3OOjZbxmDLgFxj0tRrlcXLL9lCkYvRWwNm2XuOs+F9UVsyNK27KJ8NfD7MK/jCPHSwkXdbxd5AjAS9jTzvFuUgs/rBRBLc7Kg/e9BPIIQ3jpTvhkaVnuC0WtGUqnGc5lgXEIhWjZnusrtva6v7Mj3I054SjTtEOLfui8XRI/2yR6NUiRAwZnFmWMseXWVz0KqSuY2iRcepJIbM3nefz34OCHYNDIgtLkswGGe0EjJ/K+RUsbIfgUgQPhD5QwRrm4lKkd1S4homxgyggiIo4tBtL3KW3xZrBAdGo4B0MwKy/sCHP2mnhUKwEfy47E+0iJvxdQ5Swnx52G4m/GBpAVBoGst8HIurs13vpHVdH3iJzRfn8xlPVAAswV8yzcGht982NGahnoEpgSYFmNqLgJUh7UjNFQVUK97fJyTp3+LPuIPBvDApyNY5FMzBsfcd+tS2+145NSf2S8G2wx7wRTtbK2LEAG+qetLRrPtMy/gmQ6ItCYepx+ZJolWAko7P0DHU6PSNiy1P7zzXT28/1k+5TB5SYzv9kYWX845Os0yN0woRrsB0XuS9STIu7S9pENVRXluQpExNdJREzbZcRlnZXxtKJPiebPz0lbIwdhUxx117UzVV7Y+1qkBGG9/NzZrIq781AC+TGz/QlSs5a1Co3EQjmgqJE1ZjAnY3dpx8cUEdKNNY9pGcFXermxMnaFeex2kOGg/uVNIl68kbFVFh0s8tthzqG9d3G5wuH+NMQq0a85X+AvcUY0kt8k/LyuZCUNfWkG473eQn6TNYwLmOxnOCbSulEK8q9QNtE0crlgqLgUnrbvicU1VZIhFWY4ibU7PncULtl9Ub+rJGwb6UzcMqZvNRUpHsQYC9OSAp+dQ/8ISlGBo/TbGX1994Sb+4dMr/Z95DPQt7SHjVig8x8QQRqVrlkOJM1L2OHt3E1/MwMliss5vXxdV5WhRbWdwcPa8NaLd7KVpatyDR6und8m2fFYo2HVhUwuK6M2DczMqtXE+06GF+PkCHAug4X7SW0nov31DRcAmfe6wKZOtKzE0zs70btstJwnMTL9KpBTnxzvCF37QZfqIMX7UM6OeaihXYulu3ro4/GJFdNnscO4GLCd8I0Bmu/SMDZuY3Aw1azVdzL3hUXy9UiK9aiGCmdyP/Ok1+4KlYeQ+B6MLlWNAcj4QZEI0KgAIAGMIatC0eVQBBLGEJBQNa7nnmQMnQuqbzb0GEDHnF6SC0GrCF7aj4HIqjTb3EbmTsQbSLnHen1ESWW+F/zhEdQRy8K74fJMzc+X50BNzcGn2/u9AdgNP4r2NY16tAvydLIIwi/eYwaR2o1oNiAtC7JGazxkoiE6JW4i1l+x8iDKMNKme/aqRupRuooUWXGR7JP5PJSW35dKJ9NZe2BGr/C268zc2zcBM1e01dB39eKxLLKclAkfLR9HhYHJYwlPiNwdRalhIknOadM1Z0gdpj8f3fbYR9cj2+dS126L/Pz41sN3WeCiEvKoFsSXy5IEzTYxG2i34sl3MbuqhMabuaVdv8PsK6HPVDFhq+MfRRoAc5dFFXrgEG7I8uckD/KvujH6Um4V4RStN0o8MFVwyCT7q+wNmN7UVQfCBiEiDq5vjKq73PSwM2jsiQQpK5swgVLv5cxL5C06u10qOY9YJ960tNOYLMJ9twQ6nh7JgBzKK4Dln3rY8lY6V/Bfv5oICVV16hchnDJXTr/iRHLJwQZMkk5B6wjMBvJgjaU5IqSxUyi9GaM7JTVi0yM3Sieb8qJ7W96ukTctawHCAAblJghh7nmPgoLSFiO3acT/WOlBw5QsjdfSYNtPUR4at/CT7iOhBQ+rXwmXedov0GSNd4IsYClFYcA9eyufo4z5WhlMbL6j5+/V1wYo1dD/Doagcnyww8pEriKkllAy6aIGlx/XnDR5133Apv7FC0+YBaiMeq/IsjUHK6ionbdu7Rt71WvkJOu2w45+jCEI+EofqJ7lnu4H3PWWsXaUNEp3xO5RxVKWB26P9eawZJde2+OmKqSoj++XBx8XDPelKlgAON56EXNKPKK+2XysCmlJg6nmpWkgOL5tv00/64sSetmpyFkSlnJnHdt5ekNtR1lLii635KR9JqeX3ThBVYGDRk5eq9nRW57NlDY7HOMlkNN1bcW9mT5iVsA8UfaL2ckOSIOdvtAoJ4ThZkX0xIXed4qP1bDk68WPNy816GVWcPjfjLn+rdR2CJXo0jTOHshenVH+JHse4ieUMZkVIa4zLP11kx+6YAwh8QNkjkYyOG8Vh40IKHpXWx1EK92qSJrpdni5rwY9gg8Ybe7mXH0RRH1HFZoBv/p/bOhgWRbeGSlZ38FNv7MZVvIBciHdyV1wNLr6G/+JGlzHrsHVOOhDST6IUCIu6F4/A8Mou8BTrWZO6aRWrvgLzXFj8koWYx/F0/gJRgM3AvAeXOdtOVi1a+JmXaO/CDS0LD/U/RIKUD6XqIXRfEEJe48G/e6BXBNwV303i76zuSf8ijZj5y/wVie60E5z2G8IgtichYhjyXOebc+k/gWk4reXyQQve8ibBRMonRyS5/gX68Wkl3rnCCdItvjzkBn7pXzU33TEX3rTKInXTooC2QivU0Raqkdx0dA29aSMgeeDKzXLsSyHaZ/jfCm+4oXCE65sCYm7EhNfcD/1zCWg6FvILmCVPwHU+DOeXmfeSXoaImEGoH08TXiqUIl2e3mAZZkLI+KSE+B+AP7V67MgiPHgL8DAP6CKt4lFyrO8Dogh6QXCVpnXYhI8CG0RX8FnaCyRPVFsa/6tn5w34R0MBEknw33BAQxSCCRwAmAN++91yxPr9qlrXAWvJrQdqsgDl+CcJVB+uEQqJkXJ9erYtG33joeQ6yBu6zq6BKFiA6Fmi91Sugm0ZoIq+BPHjKkguN/piS0Wy5HIHOZPezClMbI0zjqOeTllUIhQ54MDbzZd0pwEoWnuk9oe/mOuHBHNtSpIYoYQ42OMDAdA7P1uBh3+mXwBpjqrbZOog9RAbn89Xkka9phZj6zwocRJdDLDXM1T25CooXTW6Q2UE5g252nKvfShaeZCIU94FpaKZcIhyjrjb83ZcFVZ+Xfgl1gRTaDNNjNtveep4n4+XMaSp+tHmh7DZhKeLojplT4R87Sa+kyux3viNfC2k9kkqxvxPkQShAW/gg5hU3dfgu++OVv5JI6ABipH1wzYfRgn65jWC0kSxoGO1jBdJcz9sBQczgWH+FKHUvaS3FytRziekSWXGJDIjrJ+NmTNLYrTF20G1lyowzUVLy4RrePwX3Sr4C8yvQmgy+33HaTNENeExWGCiE8ZWSGDfUlsI467EjUEcPfnJqnc78WVwOnqxmc4WZku/QSwbUi2SPpSodSMsZuMkGBjDgiCiYvzvR5PbNBvnp4WaZjzG+nr+MKqCfXF1/Qsc0AjzVbIMy4mXPu/UuH0fwCsUjtxgYovvcHNhKF3I5KQH6g7muckxc1Kfpy2/rufnOGr7Ck/ztI+behtDX3yAl9zLSt+YQPc73D8VPdunbYMkVwJwW6ifx/L/8QGwS0yftp3brnZQgl75alWQAA6F8c63o8Ll2f9SkEOmyH6aemu1SyFrLSIxLbxcxPS8CWc2BMItPQ5DNm4zMyS7LNM3Rah4k2wBGgELKdsLIFNBvZj1qVvTZMMIj3+KR9/k7w2L6SejzkoQzll84jeolGL8ak/Ujz03pQGWPgy87opjDgr9FYbcM1vO7qzsRAm+92fh5SECyzZu4Txf5aHM+VSVxc5LqvLchmEMEDZCMmAt2i+e8/8dZ1COXd+w4l87LWRoNrXCkLJmxAJLIKGDL+zOdyNMNMc027eI1YCTceMEJKvuuW2kY1CgzoP1bIOsoHR4Dw98D6yOp1KaH4TGbB5ic1TVGqpTbfhyCJpsHn9eONPNIeO+Ptku7CJIchbCh74/oCqaeyDMQWI5Ldm5IyeaTCc2iOrgbgMDEJOQFUSFs0eyRvkPjBQgU4Pdff+FK6pyDcobXGu7SQumULPq7nRdE2zYOlrZl/YHQprbG13KXmNWeB1lz1NWFcZUDPn5GM259MnChLmnQAAVPCSne6cf2/7JFHOG44gFJMQyAL0bX+gwucEqTOTEXi3zNZJx88CaZrPUrXDVDKYIHKW1xeilF6it7CueTJ68Vig9+WsCB6T8A+0q8k/TpFLCqQiRrvrzfcSguBg0R9fVMRMufVFC/BrRyodcii3xFWUp/151MGoQse4c69QEcGQGlCsucBO5K6K55TM8hA587cFgUU6yTTcYkw9h0bNCgKIdI2Mtbd8cIsYPjB/oKof10O+mEmwoTWdRg8H/djzGPCgDdInCUkGCQOq7u0yza9PBzPyVV21iWHsgqiuw4trRqdWr8r8u5yt2tK/35uwFDxPw7AhoHa3YhvBxJ9CPvdvxz/O3DVKqS3ffwQBwqHbbg9uiNUy8TYIDL0aBleOnXRLNdGaCRb8USvp2E3tdifISyzfNC/nOPqV4x0cBUn41kO/TJAJBaIA3DQTZDFTrFfS1Kb7TqVWu/xTZlWWVTZx3F2Orje0gFf77Dgwg1oQqJBys4YJWIbJsPqNouU6PxXtVJDHe/3dEnzh350lLfWoDMD9dQ0p5I1D+hkRUbacRDp/5YAAAAAAAACfdmtewtFL81aeKkKVV3To7MQrBpv9N+84aMrIQDOJFn43cGdVL8BgDxNACPWLn0FkuKgXfAk2NlHD2hXHY1dV7Ug9JtjP/J/2MhLjOpEx+42RMGPoVbKHMe5kN20g2kRt1AQN3TYP/4mZyRJlROt6+822hr52fTnF3z71O9rPoLkEFuz7el1a9HENeioIZF0LmR9QoMsqHN/gxMxt4y7jz9D/AFSMRYxeFHHrmVv5FFbPysVOhHbPZlsOrToCiRuIvhjtnUbzr65GZaDXcfa54Y5gxIqJU69AANxYNvZWwQ3ZTk+NS3/XnnEHoggirDY0Xp3VpGeRE8Q7pYAdyA7uECIOSbiZhXB7EGvobl3kAq6kG8UFTp4c29tLuTf8yx/M8nllk4I/D3DPLtidWQBUH2k0nuHZuqb85OqOckXGiij2FM/PLf2EAh4VxPrM9IZvq1hQtKTOY1Hnsk6Qw3bEH20GLpJCNS4an9/+m3SToWdBBiRjnDy/KpY8LTlNVfJmnSyBH5gU+NFsAS01PyoK64YSKu23pUH/obdWSHgmdmo22OGG42kyYHLADGOLvL0oM6ZzAyK804s5YJp+LU4v4kJgtXxKSsBxPe/Dum5i/ZRJ+BPO0x371d7sYbeibJoPJ/KYp2WZn/g/toiyy1XGIcMC4iLKtUH1uoD/q/MdxKCUbUkWg0MyP1T6ELUR+9sDAT/nBOHnPg7GmL3xurxTMT8UkIiirOJ7ELjaz8onafGzNn5uPTBvc/NCARzTK3kjOkc+ozBKmg9ECRShO6dU7N6HW//OleCVjfXqA50ZqvLtgvp/VbQPxCkRxsszT352SEA/Aj+7+e3AAEnuK4AnPrIGZDagZ7bFzUFsAbqT/WozJnOZ6LnbMFQPJQXYsxJdKQjQxDZQXiT3m/27c/OEuEbraroQRhWb6o3AewfjP0DcMB0gyM3VTUEHu6Gut2yR8dvY6jfvEiVW09cBnJgAFn1fCeGquzIau9Y88rksnw0sgdOI2BLS6o4eSnuZ+4BW39Z0PeJhOLWzTer2ZEOPL+rvQDP9O96zXgt6Eu8N8uneWP+4XUDy7QoFGkkQBCEMcb/epBeiQYekhCQOQ7SXv/KJNLRhAaF9PmRYdqz4vjuFZV7HJZXLA96Rl+xQZ7FdlRbfrqKEIN+Df97QSlu6VQzdePcsfu79KN8r0g14IXqscVYGIZy/bGUX/iJKrcSgRdBdcFylROk/qMtr/ADsnbMXwa8tN3ov80fXIQkaCockrz3Wv7pT2Yd+KxKOmqjHTgbC6TZ7Xvk3Siwx7Vp4ZC3w6ND9aODoHCRtrIkVGyKdxshv8vwE0hiRhfQQc8vczcuzb3nLLsU6c3z3RxL3U3m4N3aSbz8Mpy/2DprxwS4uGr2euqqgfwhwBZUPSMPywnq5lLlI7sHtWVK5/xYfgtErrMWD9qc/EKoeEQNPHF8GkjLMLALKBtxL9IoLECD2gz5fXAZ3SAX0U1pui1QdEEmc6mURYF0NBMuG7yEmFVMTXY2Xo36oOv/nQtCe/FxFScvAq3D41QLJHeJUVMFrOv2osbiDVaMfBnAMtS8JDr5Mm8MNjXR/65XSy8L5MvDhPJyGzswxmc2ILL9ZnNsWmx20027ix3/v6WZY3xUMx0sv52E0TKw5e7f5bjw3myISg742coW/ZRdKWvrHnOX/MHwnL+UfUlWzD+BBXvvTRvwWxiqU4oMaocQJjTPvKJfvEWXsKhqVyFHBwE1OnjBw9duRsb3b6IIvZoQfWIYZpJwB//xbyvvKBCGMl1Nl3P4D2R/XwHZTJs9b4OSGT2a5nkQ497ahFXQFfNlJq+DPz/0OofTbYPSSQ9suI2RbSz6n3ZQ5pTHaxxEXht7hbI9GEfkltsMmlJ3qawAKq1teq979aQIx3/wSa9jEb/95Dy62+zUwOeimJN1niJTjv3oTRhElFO59wkfjM4WLlzTCUS16inwBRZQWw3Iz6Tm1k7DuoEgi0NGE7sv9gJTixUMuFthMSslfNBGUeYyHoMr3fB9r+uLj+HIkMh+vLG7XVpSIHwaNJ3dH5wVJXc/ni7MKdjTQVLo/K9ATJCtYK4mwBRtr2A/1KmsZnx92QyZ5u6NF6Bcky33SxEED9tzjzuZbUxT4zk6l3Uh92IrztsbkI5zNJ+zY14gmqjIZlzArxbaA3oU1BuO8fwUP0atSqXTN6ZI1w7K1wUv3LQi/BUcWpLKPyair14P1wZot6yoKYAEP/2s4lrm+UxKecqY16SkXfvmqbW2XhLbNqxrgspOMumAgxoAbBJvoGHyV51hTSeCMI20PWuxJrBQbXrwQh5+TKP/o3J6ylv1xzc4jtr24xUsbQpUcRbctFc79jLxDJ4Q7YGcVxhlmIlqbpEi53a5VUcabRvzZQ2dHn8cQ//u8miNC8pkEG5RZbaWY6+xjJ8/i3hdhzfyDB5b1e9T5XuVJMQJQhv6xQhoIoGHvQQa2aTqAAuPV3R7C1n7g5bfofsWbuxi3SXxZv1/M6OBBgY+4ffaey9g72866Gzs3k4Wl8VmaHftppluYj9pQWZyhXeVoOJ88ypPZGGFKKxDRWC79CEShtONt7F1u9wF31DTbHAAN3KNwISnT8mucv+4Q/wrUeiRMudadQ3EVlti6FtPSvWUEIXXw412jc3ORfSsAVLmhCa2uT1CKx8x/PveqRFV/ujIYRMXVBWocb7Oqzg5mqjm7hOd+Y93x7K4HDrF5PFG8YWsWtPYVPLy20/UVr2KMv/CeKQDm+4S6op4T6zC8xmCNxL2drQXNA2o6eCF4MlQI0Au2ydL842/sirG0EKVzmo0bbHNe0WeiJpaO2IY9AJFSFHqyQxL+50BKkk9ovU2d71gW4+isbb5w9eZ0Ga791/UKStD+E7xIxXTOiiIx4hiilmHLbGBqJjdmArvMWJ8Rrg/BLbNnibQsl72wtQQGD+kbS8fTc3WjMH1hXHO6/eOVRD8BHnbjwDXFHgc9gZ2LTOBCdUFHarMdzfZ4W032cc2eu5g1eq1GiSq9Xrb+Gvf8naEvWD4BnYWtJS1bNYMswLuiMJMCnY5jY3PatA3i7p9c8KQ9ePJyvl2BVvExFoURR+nq9xZ9fu6FWUt7x0D0cPyXi65lQWEJFrfhPVM0eYqDeDAwe8FYTUDHnVPjvR7o8/McGQJGXXOAC0NiPZsRDuhkEI+EXvqic3D1QfrJ9WtIdHp3ncwrSrH5/0xzqFqVxLJW62VF/Rog7DTt5NngduXaH5iKFHE1VM1G8ModiVp5Z5zVWVd9OkUNMyEJeNj9yjDcISUdqzpRwpfLowYqHv7pZVyDgmXsxzVYVQiKMG/ghwPwe0oSuD/+b824DBfAq1BORega36fqnbeRrpbdUQ4S9iwGJaSbNawElqcsmRxhpL6mVmmfNTM9UqLvUfTKxFntYZ54am3sZSU0+GoQFfB/9/7u909NcV5IULARjj4vdOpHgeUlkcHYbIJievKbUpNzLIHFKb14E1xUsipwLaXoQcw3jEyfUb/9Suo/sPh+qM0AljE9oEzRiRkqGbcvt1AdXp8HFyV97TMW+gV6Yk4vARYwNYZQWx486HrYeymcV5HpcgdZCUOxk/KybvKCislPQbbbI5HN+U65L+xB+S+nmh5RRgCUq7YRKR0fq7ypzKdjkQv2Otuv3mUQnD+MjlXinOsECwhx1Pyx/48HcOE+PFvq7LOeMCiV7ubNGFlVZOZ9zczHxRXL9qMWOPjsPF/nGBPGZaSkFj3VTsvaMnIT+s/ZnJFLN65gtbr8Zk/l6iiF155OZ8TXxvWCBXQy7pRZra5OwwSFqun3zWw3OUSpGj4C8t9+QA8EM09gynZwDo1bMtoFfsVManWgwTk81+UZ3w8jXZ/Mw4mS8M5Ls1W8nWLxVcTzU5w66TzmNBrksRZrhADrs123Tk78qHumXEBErfxAIeY/DvNSwmZbpksSP2EW/d6O6VrhckqxqyA4BjDJvRXLa1gRz6Xp3Ag6GoOBMOusKuUrkPM1EOqO1Eed55Foi0p9g/D/yBkO7ZarAvnP4ze+tDIL6ifzFq4I9LQFPi5GSXAsQqF9Oo7jH5ETh6Baz4ztVcWyft6135X3r7OWqtYTPxYtpIeDHo6XrbgGgwULcZV48h1r8PpI+TBUHzHBBLZh+//4NU+IsddCgME3Vt2Hm1tD8nXZ+tkiRyvUyAZp43IjAYVBqkk70hvhLV/JhmewSaE3CUcNjQz1yRaxTcvruKbfs+WbmiO9NYi34Vv4qooeqWzIAn3Vtbipw08X8vervMgfbuPAh4AWNcq36ptEnGpCf55Wnc5Zq5kQa6rF3OMM8eYUKLEPZNVVG+RkF2zxo2LIARMTBnIWzVf5NgLgu0VLBxAYP3phfbCeuH0XrKE678ZPHgD72AwOQpkiQq7NFCHEtmdpiQZYg8X1nc15sQYWpjYDeAIYaUuaOPbJqxrKAZfiLzh1HmTlDUHkeUEy50JfDgnM8JlzXM6Lp1uMaZzYNjrRPhG7Nn3L7QaxG2H6kO/RhI5xo5scRuK3TwBncesABxcFRWlCVb/scw/JO4Mc7wf04g4b5GPzZrhnEIOisF/Od/TYmjHURTqqiH3ahe6eJE94r6MqgCpOXWTaTsfQH6kCqChovnoV45NEvw0R/CeasyIy7enWtS25e1ghiMXgk4r16UKjgZ026zOpeNAoPdMgEJsQ87K9qBPtvD6H3+BBip40g+4JM9fnQEElFs+d2xvKAQTMsODU/Q3SNAS4KlvQHdd7/1scWgFCnHU0RoAoeI+cNtDz+pjNZYTfDhOXQj2BC/a+MuUvXKJGDdZX+j2Ombs0FzPs0ghiaTmDPJQSCrmPvV8YzzwJGtTf4UmwP0KEjVyJfQUnHwBUZ0v1atQ2kwPdQ/wL+jFpAWBAl6fDsIZWIuqd+ZD/LlPa33sdoR1vB1kTh7V56lkHMbL/lE5F6uBwJuXWYfq8bgJY8y328VO1yuKogzAsDtT1U05KQ0Jf8M25bejPcn/1uZHdO0V+9lvJPl7ZQ0leJSVTWDSkBFN4yvXX8K0XOVbTvaqPXgFE7EqP2dsk4CEtRO56ZQVmPS1LOa85tErjoMDZDPz0sgf/WVJ+BM6p+1aiA58shJ2dpmCOa0vP60JLx4/rSz5JVs6g3ifKl0u6Ukx6yrtQsCjF1NrIRJJ+WCXuEIrGF7F6x3BhvNSYlPmJfa7XZnpTsp26yx6CI098w0UrvgeFQw73EnV+1yf9O9xQnYLE0xhogy3LbmrmWK9beAmgewYem9hGSh4++B3Vq7PSXqX5BX9jivUev6ooB44hJchuQe9ZRdN2js0hK7AGZXf5Xdjf/NhJr3RLHxlIpeZXPGD/b3rA6TUgDkB8ze64hwbXFSzZMXBDkQuXocL7WKQ1TQ1YNdpVU7tGGHA+DmifzxcGDUIEB4ONQbwJfVx5Qa3eUPTL2ID6sdnLWJyCmRPe2uZVA9ezVuE6eRuE6zKxBcYQy1zjv+V0MaN3cY1YmyG38noyzkv8nNEXplMBekPpIZALf4QENu6n/IM6Vp2CVXvALR4dUR2eMUDvgJE9X6Qg9mRS2XslWaYnFFegCEzRQwIzF7qEiTztGyPFAHlyT/G5XwXIpl8h8p1lgnjRHObrff/qipLcNczI6EwnffH5ltDYrR7BFTTEJpx2X4NhYyL/SK/0qfF+V1yg5WYp6aUGcaFSlT4u9SpwHn7XrDSVenmXxvYSfN6cwkCHauK/zQffNK4tB6VMF9dBoKjEBi/Bmvi1Fpo7ZJ8QJjBbhgEJoPcWM+8obv9lmLLUmPJ7XAd5jdlh/pOLykYmc9wC6TL8w2/pKr0ns9vrDcGC2+Hn3tsLp/6eIBWRIIFyv2SckJIGmpB7zJeXlG2xqIZwlB5//ySKxSwo3C7b/jJ3QrwZFOld1nIPRUP4NgfqCZXUJ1DyhPw6SVe1BY75BI/zvN6WG2Ql4/vpx8v2qj6cuvry1fj9+HaO84Y/mX0we/4sKqfRkc/RF/CtSh2QhrBo3dUbq5apIyMlBOng3m73tfdDy+5mnIKUslzrfMHDyp6NT1WsUt6Dz0p1A+lb+B0o1hKh5QwNvWddHt6qTLMmAmIhe5f13au/8eV1Jc1uW+SL+urZNZ/34mOV544MaDdYCGp9Mq/cu23vOe0jHk+shDUoJV/HwVJchMqrqYfRq46jlsxVHSiDLKWVDVTjgEt2bp4/86aikXyuTld9qzvE1b841T3pnET8/LvwCZEIxvKkt3f+jmnAVBK2uteHXfmL7HMDvgaiVELkFt53Ar3iR1BeVBxPyFFIz5BUj8qntXTaORVtnYWNN/zfVguR6jP38Cjmy/XEnina1yhBtH6xCoZhvZ//+XQMWP6SWTM7OnsyU9FFncN9UrdjsCM+ytf/JObFVhXJk34+qskLOxjTLbzu9b2gv4WAYfFx0nXw/zZARfgDywoWGzvURj8Ym57c4c5OKWi0dgHYsp3IqjH9AYu9c7/zxNNHFAZ59woOVdfUEnQVGOt4Pq6KW48uZNAw9uiI5Rtqg+suQ91kvyQ8JVfpDnPZPUMmz1/DSo7lG/a2stRIMDmuSbDyD04Uv5ZfFGqmn3YERiSZZEDLCXj35cFSFURr5dvbWEhrgEI/rHqt/9HWsoqvfhZ7C7WQbkSYDXsbcpPw++djIaeJZKdPg+Znwe0y4T3ztMzMxpmfq31PH+hy9u5ft8E2urna03Cab9kZCoxcOn/oBYGxGPMF0AAAAAAAA=;" vertex="1" parent="1">
          <mxGeometry x="250" y="723" width="27.04" height="37" as="geometry" />
        </mxCell>
        <mxCell id="1F0DK0M1qxSwLMNNfe65-5" value="" style="shape=image;verticalLabelPosition=bottom;labelBackgroundColor=default;verticalAlign=top;aspect=fixed;imageAspect=0;image=data:image/jpeg,UklGRnAaAABXRUJQVlA4IGQaAAAwbwCdASraAdkAPpFEnUslo6MhpPM5uLASCWdu/Fd5N+f+yY+l/PL+VJcG3b155kz7H+/9Ym3250l9I8YHgt+L8J/In6a91fjZvD9kOod8t+6/8L/Ee5f+j71fmbqF/j/88/2n28cLbDv7AXvx9a/7P+M9jP6rzP+zHsA+ZHe++lewJ/S/8l+yvvEf4nlX+svYd/Yj01/ab+43tPkKumZmZmZmZmZmZmZmZmZcz2rXtzVrt9gagLQWAH1BtOg1VVVVVVVTgk+mgp91FDPGH3rWJhT1NbKgfljEu/fXpv3I/VB99hZsda2s9YmBktOhL51iVBsg/quW6ZmZmZmZmZmZbnTgPL445jaahI/9+91m30Gl15xk4SRnf2ZViUDq/yIiIiIiIiIiH1tdE1hfzLXfGpI+Y0KzS5h0bzvYW2JCsMxxLOIeuJMwFPpq7u7u7u7K5EAXO6CIdMJHxAEuxgV/p4UHhTcpWY1f8eY01nvv5MspnsVgpaewuMT0f1oY7BLJqr5OUHWOiUuyZVlPQYbQp8pKdoOsU/RbUWRHAbKL9tOcSq7q2CEVTA/YWI7tZBiToEA0pDRPQJbUZjD7juPuIRURZnbtoxhLmU1pgzkTKp3SKeCP2idXOeCIA9JYIuOjp7Akdfok3T0ra97bxN9sneLNc1m5VWT9jNRJfyvmuCGZHMxBAMPpPhRK6evoSR0o6r6mWbT76qUrT192QfjduqqtGDdNsfv06ffwZgxZP/mAEWEFY0XLo6YyUdyUZTBJ80pvGeB97ino/uRJUlCyNqJ8KAvBXy3Z8pcluDwt671bObp/8qMLnB+sU/O7JciUbVpHHYmNCb9EINT7cnzcQ/Q23x90woe4C5Ln13qAJAg7B7ZY10D0uawKurMGalj2rUS1eES+dy5s5feG9vQNkiRqXzYmlVYug8ol6unw45i8/qTCOMF3HKOq+OmWKcFwXAd8lBq+6D2dbp78r81Tz4hzZecnlXOYbVO21KSbQBIZL3LSBwPLwtvqUF5RZ6SdoVAlXtN9GDUG8EpC9PzBAkJA7K2BZmODHM1zxhhLG06DVVVVVVVVVVVVPbujOS3THfVnpMUP12s+1TMzMzMzMzMzMzMzLtr8OzZC/E8TKez3HkqOE7Erh0D8qqqqqqqqqqqqrPMn93d3d3d3d3d3d3d3d3d3d3d3d3d3d3d3d2AAAP7/VtAAGFs4FRoEZmA1V4dVeUaHVWz1gjYipjn5bDf4nOK5zvwdEx7VBs0OaxwfDXK6F4YM4JcrpK3oJntiVVvw9BdYKppz6alZqy4fbwqZmExAZBQxWn+Cz7ufCPZhV7AQ73N/01SiAQRRX7tHgJFY4Jc+JHQynHXHXggT/SsqqbwMKIqIc1P3I0pWsrC/x8VWoreEd8IhseifZma7gra8Yi9M5wIOWub7d9lshLMkRZnDI+9vU6kMilygRGeUutsuMQGKYk70wZpLsqiF75hUNbWGDW6N7rP8aQ9ZB88rJ/8prJVz+vVc4wjGcbFXvztuztVoMLw7Tq9K+eHsnz/m++vllnZxqxMQs1KKAQ8xYfIMU/IuUfnx2i4OJfDLZIuzKHu48TdH81VoB0id1+dFQSYrREl6VnsaWik5tpypgEGa9cxr29+C/I9KrI+w28F0435Ng09fU/Hs9uD1Xj5SO+LrC4jAX2Xw2barSShxkD/irWqPpEORgvCW7dgk3sjunhy8VbnqYvE1kfQnZ8UuYly6ZQaDwguQF9yJYYapuMtRqc/2h66Xn9Z9trV/5ooveX2n3hLNn0rNxxPkWEUGqmAoKPflzWQhS8AmVxspdhQMvSJA3diBocWvpg0eqVu1M8mIRgpX/ZRBhzSfkivToHPPNb++ik3sBhF+8PLUM8KaKYvpjQEU5RcFjwRe3lX/ny1P9NRDs4oKrRfmitBJaxV8eprJSc82VdF3in7SKq1SGgkvh8/GMidsCMIx95lQNfW6kF59pSwiLZ1+r4DwCRNIrKuOALu17Xa3u6l403f5sDn2GM9syMgAOdUXKaZ0zQ26nRL0GPPXfZf3WIjOAqcrrlTKS3uPBrrv9wmObuVOGN99y1jlkcgQFfRDuT3aKljXuP+3SVUrjEAAKJqMkIHl9rE5Q8JJ4pvKH0y6DP9/rfZ/uMd21NgdUjjDdc0+/gQmuIPWzm0eD3scpwRqCr5y46PpoaDSrSMY2gmDH7sS9kR3FCMYwtXoSwYklmqwzSEoid46T8mN4zo5iUegdfhX/gOCEDyM2aobOwMFDEqSOhhU1REKPTMo+9o1w4o/UBSHbRylYJcZogLWQ/r7L2AG8wzWUmvr0vbISBzH1zVRNGxJpxwcI4YhRBbNyuW65XU91Y9evazI/kliOoIqqYKFzteJnHmpIwcaQJ3ut4V+2vrjw3ZDO2N2j3l6MNLZSynrQp118zG5foP8NkPpKEsNitK1oo3z+9sJQ4i5iL8+jSzHn0DfW7jrU+1HUStigEmxGGDebhejLjMt0K/UkQAI9Td7Q4DVwQ3gIFxBpGR7Zp2Adn/MPyhXzaG69eReyDBfC8uFZs3yHGocdTxydktfiS9n6emGNYs+Md5/v6GQnQbufKmleRZIKuIz2Lj4ITrJj0az43sTzEcqG0X4lZ/5XEGgXoMn+xO2CH1p/4n/2onmGvkrub35tCs3wcjgAUo5aF+F7jq5ud8gY0MFEWL05baK/QiEnT8VuIYG7gnQhejHM4L7pd6n1+43GOvMe/C9Xrn9N/wfwudgUoYRUwZcqDwt8Qb/BbM051rAF+9xk4JCFgizx/isNrYL18GAAh8zJcnRggPg5anx7L+Ojz/sZHQWxWlwL0qMTwidNyStppUqzax7JwSL5a0yiNFBm1vZl8wnGQ68/kKQcXQ46NKG/XJDqmi/udYu8numPK3X06rvjvisC+CdM7H1xVmyG4z2N/sIwYHQGP5TV9EFScuiEIdppeg4W/eczdtMEGjP7MGE1j6x+XteWgqNqKvxfiz15OdBUpDEaAHpcC+ACBkaXrfRVsX1LkUhpnvA/rEL4zoCMoo7EJ2sTmJli5T2OsY5I75tv2Kga7xi/9jpJWX2JpIUbDwztA5OjHHe979lXDpINIuc66fQ9hzV9DQ+sUUaLCPbfUL2L0tT2v7oJA2IMQNsExUEO0yY5Vk2YD2vEdp8QONwqGVGyduTQcNZbDLHAbIdQQWZvrJSD9tKIPwx9B4DkZY418k54vPbjpL3b0pi1hytDtWSvfuxtE64L740XQ2frC6PVts7h12nqBYTucgcEEnUshZ56CZKRCWRyyPnnSnyzrhaXKrtARC0PUEFXLsKEkesok5WnRWIarGZjiav5WNn38cpfUk0poPv1U3sn4j6xXA4sg0OreB1wHlKCE3qz0wyEgQJmGVbk0g4O6v13bcpX3i/XUWsspsgxn60kLmNK/Ct15hhT/AkzPO1s55nO9acyCC1pGEdUUw9Vqk3rl/7rB07hhAt/JVUxd7ejhgp/LMyqOxMpHoFCTYLBT8YRGIJp31S01IHcpwPLXZlKtRgfvgJZBuWypIT+rB3M1FnzCjx6ndKn30/oY8QpNim6pev9ZcI+n+9fDUhpzSuA2mviw9f1E0oOwiPnb3Cih4teu6Bu3256L8jaSa4p6QASooM8AehMKB/e94bQmg0kG9JRoRRk+NPAkkHtA/XchJs1hKpgwGxnHGcuOBYm+i2HPa4CZXtcMRvCaBLrnTuzVnPJcNeKqplX+He6SKtylfcBOQiEQJ2ClQCM9/AgLIUWv0MZ9+loXYXYHzddvRa+Q2QqgFtaUmfwsGbBW0Fo0T26vqfmO4KOYJSb8NrobRxQmHCmxBGWTQ4T52C3MKpjzeLOtAt0EtlIkowpX6K6jmiwuUqOFZ1fsYqNKONVap5GUsZAG38X6OOMadDhMiCmIrqPKI5gbLDl+QKF2fmpX5xtmP7pMk9ZLz/PMO7UDk9oEIThBr8Z4ZDDLBU+B2dXDYzuR9DotypBIK/oHW/Odhz+daM1e5IYLnwZ7SOFe3au9iFE1nMjlIvCY+VDxT91XGyX+t8bhxwRCqmIV0+foNWy+O1eN0vGCKYCa4fgRwQHRpCVmtY6tbRzAMj7wNxYmGSBuYY39uYD9B5jDp45tt76HjWGUkKUjAcAtUcvu+XdQ/fINLOJLzINxOnsMUxNioV7MMizdotereFoMn+WL5OZ0F+5slsvCw1cF7PZ0b7dLmCthZpkJGeqIZ2LMtkNK5+usydFMZRuGq58AZleTR+H5/btd+dnxANUfGFCXmc34PXytqYF3R8RBsajM6S2MsZqnRisH9CVWWk5kZ4kINH7Pob8ate7sZ+D1g9zwgU1R8Nqf98AUkTSh/CyhgH9ytp7AJMFWjIafrIHlUO3MXp8UWUpjABbq8Q7WbspMtn6/FNwLTHKBOdtDqDCn4tiVeloQ/cCgBoMInEZvsEFacJWtZAmnn2qFVsd8Gbnc/F6s6Qaiz6tZXTXZDuF5HN2HWTlK0yPOj3aYn8LAlUr2HM1Rw7IFOfGW7OLesuEtt0vIoHi1ZTJnFKEgV5aQNZ6FEscfkmbHJNGGwtYrQ6PcwVsSh5KrjrkjZ2uIAQ4f9uAGzMZk+/5tUcfdeRAcB4SlNbTp3L3dRdI6psV9Ta+WLveyBYDuAdP2zutFh/f6TEfAgLSrDBYeNzCn/T85deEbbflKitxc8Zu+U9Lz3FQzbPV+U07HVv0DoGjmiaVq/N9wmLdpkzV1DmQbhpZ6O9lTlb+PZayNG+rqb5UyyBvkDjZzC1/CUWp36JzY9pLFeKMd0y+I+ivPirnCH4PE0SBtyq617SY5TdTPI2QTcjiioWka5QZ12FPIGVSlS5TgyRP4hz9n085J5kFzxR3VDOZl99o1ELXyOFeYMcYtjyo3emH7PDrrbxI1uKWCQe/8BEP8IH0P5QWKy/PCqcT49tDkd1riZkViJweXLQd8JETet6XPh3TJz2TlGi5zDzmc/M9N9Vht6fpJpLve3mdel/VN8x9qwDXdqulbl3H6zjSgsbSdz1C82OM3kobq1Z020dGPi7m4M3nR/5we7GQ7ldgLBIUkIV/xcDNusUOlPKZhBqh8qYZtAucq2H3vKQ7DphWwYZwqx1Rfuq5qEKDwFuH2W788Ym94caSuM0n9MOuwJFxnQTLMB1S/jshbly4x6TA+/ccnK4tt3vObH4cWpVfJbDzC3E1nyLAyWyzPv7TGk0csSN7qUOkZqrID1aOpT8naIa9ajisDRZDFlOkEk9mf404VKlKa5VN5oRxGLpxHViklRbm9gvtahtut2tvWsCxGn4gzXT+cfeOECuoJRpDur+x+AoLxhUyXGeHFRF1TGjnkj5yJ6hfnJYMgSNq1KzWb87qq7jhoGaoG6AYZ80nlCmpiL/nvqDy7CK/xhuydvTEDxy2PrStiZv++1RyKwhFZNV5rPijtmcmM5t1zJDClHhpfmzPpwGvoBzIEjYCEt+Z6WImuBtZiT0c0UCDJXQXZDH6CQHYoAvTdJCufqDTV30eDglQWTdmXt4fhdXu9byP2f0jTHougjp4PcqQzj7EDQaeaDiWED+LOxYnczS5mfnK6AvafFIOc7plVZclLx+uZO7pPxkPWXVmltPCMwmvh5MvPBflC/k5hDLJ2iPFCty5DTNW6563gxe36vmRMhhZDxUJwlMGrPO8GDm2livSr2KjJEHFyJSi0yILsd4qusAYOtQ7nWOk1FQPxGTbWota+wxLUhRSmRL2Is2G4d8wdBpw6YukhLeL99vdjHQqkCkzAHz5355SXlxqHK/luyEhWXNeD8gdfQeXAH41OidG+IEc32pZCAj3tOifoEIEHoopxLb29qqS9tZCW0Xny2z5tsMy8lDVlLNEC7I3shOqugi6Q1AwNi+Sp4uF6VmBo4QymsklGixH3ymmAq3mQd0gCwIIbCMWhI95up5MZHt93Fkz/0Pnogl4x2zJDuFwTWqpug1mmusNvQdL4pabAhQHOdspv3Ympp1XHx+731r3q/MT/Q4t4pJ/53WYjPgzXgcQCADZak5cSnTOH1M1bBZiyjhX+wprpGFlh9UChHVu67+cwflaT3G3qAuqqxNH5vRSfNFBIQHcquhAj2nDij5rGZNwTN686X9A9tEyCUi11G0P52YvQejdZCGCy1c/wElJSNLD4/vgQQb6rQDs50npUKSbfAeI9nY6YG0dqHuJWXRYfXlv79T1na6cf//56stsoV/KDARG2O1t/Z02Y4ETuOLKkUvkSNNA0FAFXsCY0EpX0h5ZrBd1IbK9BgnP7ysPQrKJT7qja1oMzL9/4kOLSfeAHnKqIrDPLLxfuKYTq7ShIKorx3E0+zPwNS9yTZ6ZwN993aFofHG0QV/fopGLq/3MmhHiDAbA3VVSHlvqnJx28XtGsyG61+Qf1htpJ4BQIGRRmpF9eswmYu5aYIdeFiX0pZXzQacE6Di5hWy2x14ui+/wJZM8L7RnssRTMvkkQqY0uw6MtA+T+YyXvdPNf3Z29p2wSccmYwQ5WQ6zfWLoQXE4SPxrz6Qr1e2B9bmvA9JHWlIeM9GYKDzRnvwAxm19QcZSlsAjxi6VZFXilpyw5VDxTnlQZ6BI4V86k0jW0Ipy7eQ+bsN4ZM6RBMYGKnmf3ItukHvsLLjqa8x9WKIwprnIZvZTz8NoOld6rsZz8cFFxZ1PE9cVzIvKZ9owrb0lYJy46bz0QCMUiBsLxYyfHgiiPOwbWwSfKLC4UQ/Ebxi4B5JL7Y1hIeasw8kOEEGaZkHPc09dhgScNL2a0co2Iiq/0AIp61W/Y8pJ4s3weTJrxVQRWYp7aoGoz5K1tAMXbcGaxtFHOg9gdo5Dd6lZhAKQmYvZ/8d3F5jT3J4ZecKfo/ZDxgBk6ULF1mkFa0iPkmh9FjqlIikj2t3L9/JUWVCie+7g8dmh1rbVF3t56xzrZ96UUTgpHrjBBZ+dg9tRO1xOabj4cffulosdy9+1KKiEZnI2WKNgFwmD8t1Q7nEOZyOx7AP0MlxDWNR6NIRpd4vbl/zxi0eE4hGsstbuHZVIuUVMwpYmXJryoUjnrQc6yGcnpFaDlVu2aVp/gtelOWwp0M2SYi5jgL+0UC5trAwxgMVzkRyVaRgp3yEE8SRSI0E9yz6WsvT/va02F+0q1mjFE7nbYAm+6oDyOopeRo6DYfvemgEZRQe1X/fwll/yfl9uajSgFw4VYMgv4Hb9HDbBaW14C2XQAB17JzYCT4eCEHrI/pvptF7Sj3lBTtnzLSpoerIhLlCPcHR3/YCfyXBTSQPOkAT724hvek2/9a9DWxTQGBFSvZFSiLFv8LObGfJ7I61v57ObV9+friP0F0MEgxf/x2RUB9JzRdUr5cKo3nLcVzy9tzQzgagbMfgvRfiNKF+lmyyEUYT60loZ98h4TDFyEmaJ2t5A1caWRx/4kl5+Tiih8CQ91MQlDzEyZKD9VMuutUNkA/sMKFQfLQfpBbUMBrrriRxllpqNvKRa3q5AcYGCjChMQPp1XgnXRKEYolsU9Molf8diLeRPu4IIeg4+7tXoTIGtDqfcgj19zASosoDWINUJqHxfyQWrxhBdD2p2/CBzPjYgZrocvrMev/pITb2D5nSfLRzQFxIT1CmOVFdSL8ae4Pb1wzO2d3QWzbVY0jPcVATLj7/WEnWSc4g3vXLzBqWKi+uWvK9Q7b9qolfy2NzJsEjhfmzabpnG9fLsQeKaCXTpjb0oUIMIekFpButSnIPdFeifv+lCxrSAOwxdVXgLkrkVEMU9ABVw5JVLpATeCRUsXr2dfJZTli3V1WI80raRvFCYf96pmXXkgEn0nOV9Ruygc3j9HDaOs9J1Lv5bu8WUK8yIexTECruNym+Sy22u7gV9q0cYe1qloxEXm5JbbtH5DW5In8fIpkXuHhiBY5rys9gbUBHoCsT9gm9nyfYmFUc06tsrOaNTgRrgqBk0xh6BWFOBE3U+b+xZlkjHeqZruwYrQbXG1el/vA0+RbrbsP1HkdMuy2DxSjI5h51aY1iNTKcVF5JoiUq8Zg/aS8sZ9+tI6JTI4gUdM6yfsn5AqzQnF4NlXgwgLJu2xoWtwPB/WZP0t/pyyR3GNUdWNGgmksHQ/mYglJN/JKeojkxVHeojK79OXmoERGLTCYp3FGAkX+Lg8drrn9DxTLE7kPwN/7DhvqYZ9BJC8SoFGZVesOMF/79v3IaG9BoyoekGBkVgCl3ZxWfeZu2h7No0OkBzazGCKZuZfqXSF5u/ZnJUbxGBpz9WB1oAQM9Pfd5vqnRAAACE+FAN6x1JEcaJQOfwAR9NGGyDB3OHUH+9DOo3tg1uW5/n0MmJTSfBPFNpqc6KEU+1kf9RABc1aRyUed2ezxFyNQ7Xin7xXppcin4+8n4nKqZGqT8WfA5sZwes3haa/skzhvelorxKI/1hrIIabwAzaoqLKZhllzYzgSoO8Z38khgsJqShhokttUgLmX/2bOm1u8JuPtzlnT1Mr/7eW4Fr4vNahO5EsrUQGe2GzyglF4ZuHwr1ltoXxkNOdtCKrnsej/HXQpjVs1imw+GGweAAEkMdl0y/3OAgXH4pt/xZ5/E7lPMd0dRjBrKM4a496xXMdlItfDz7RuzoRfccv72E40gKQ3Syd4slL4/f0uVpa5UbvyV+6hIhpEJD+iu+6BMJ/0/vd2CaZxvWuejyzV9RRNEwkf2txRt+v88k1CG6AG7VPZWPNrRDnWvy6Ft9PjEvxrP24nycTUyEefTFvL1NuuZw9eCDpfRYBuIFIx77nT96KrTODGCCWWAU//zrO7wAADL4Py0Elw9dG1U+LWOVPKGdqy1WogFjwRiDZSyHu0b/mjwWXPK5JHuuiztcY+aa+mjeTtfdA2V9j4imkrKItvI+NqD3+vgIjd4Fcsu7Tk21Sr0lUKre/oIKHAtlLvzrXZ/ESmSuiu4xriK6VmbpS5ykgEehwoy2qd2zqxvhFlQF+TBg78CNYBokgCmb6WJuTrXMFmRMDboK82N44AAAAAAAAA=;" vertex="1" parent="1">
          <mxGeometry x="280" y="727.5" width="61.17" height="28" as="geometry" />
        </mxCell>
      </root>
    </mxGraphModel>
  </diagram>
</mxfile>
